<svg width="36" height="36" viewBox="0 0 36 36" fill="none" xmlns="http://www.w3.org/2000/svg">
<path d="M17.9996 14.5121C17.0677 14.5121 16.3121 13.7566 16.3121 12.8246V12.6746C16.3121 11.7427 17.0677 10.9871 17.9996 10.9871C18.9316 10.9871 19.6871 11.7427 19.6871 12.6746V12.8246C19.6871 13.7566 18.9316 14.5121 17.9996 14.5121Z" fill="white"/>
<path d="M16.3121 23.6246C16.3121 24.5566 17.0677 25.3121 17.9996 25.3121C18.9316 25.3121 19.6871 24.5566 19.6871 23.6246L19.6871 17.3246C19.6871 16.3927 18.9316 15.6371 17.9996 15.6371C17.0677 15.6371 16.3121 16.3927 16.3121 17.3246L16.3121 23.6246Z" fill="white"/>
<path fill-rule="evenodd" clip-rule="evenodd" d="M18 33C26.2843 33 33 26.2843 33 18C33 9.71573 26.2843 3 18 3C9.71573 3 3 9.71573 3 18C3 26.2843 9.71573 33 18 33ZM18 29.625C24.4203 29.625 29.625 24.4203 29.625 18C29.625 11.5797 24.4203 6.375 18 6.375C11.5797 6.375 6.375 11.5797 6.375 18C6.375 24.4203 11.5797 29.625 18 29.625Z" fill="white"/>
</svg>
