<svg width="92" height="242" viewBox="0 0 92 242" fill="none" xmlns="http://www.w3.org/2000/svg">
<path d="M46 0C63.0146 0 65.6201 16.1325 64.7959 22.4531V65.3652H84C88.4183 65.3652 92 68.947 92 73.3652V98.2803C92 102.699 88.4183 106.28 84 106.28H73.6992V213.06C73.6992 235.813 55.233 241.834 46 242C36.767 241.834 18.3008 235.813 18.3008 213.06V106.28H8C3.58172 106.28 0 102.699 0 98.2803V73.3652C0 68.947 3.58172 65.3652 8 65.3652H27.2041V22.4531C26.3799 16.1325 28.9854 0 46 0ZM32.0078 107V212.354C31.8413 217.569 34.4062 228 46 228C57.5935 228 60.1587 217.569 59.9922 212.354V107H32.0078Z" fill="white"/>
</svg>
